<svg id="Laag_1" data-name="Laag 1" xmlns="http://www.w3.org/2000/svg" viewBox="0 0 20 20">
  <defs>
    <style>
      .cls-1{
      fill: #111111; 
      fill: var(--on_sur_1, #111111);
      }
    </style>
  </defs>
  <path class="cls-1" 
        d="M13,10a3,3,0,1,1-3-3A3.009,3.009,0,0,1,13,10Zm.54,2.83a.5.5,0,1,0-.71.71l1.41,1.41a.508.508,0,0,0,.36.15.5.5,0,0,0,.35-.15.5.5,0,0,0,0-.71ZM16.5,9.5h-2a.5.5,0,0,0,0,1h2a.5.5,0,0,0,0-1ZM6.46,7.17a.508.508,0,0,0,.36.15.485.485,0,0,0,.35-.15.5.5,0,0,0,0-.71L5.76,5.05a.5.5,0,1,0-.71.71Zm0,5.66L5.05,14.24a.5.5,0,0,0,0,.71.5.5,0,0,0,.35.15.508.508,0,0,0,.36-.15l1.41-1.41a.5.5,0,1,0-.71-.71ZM6,10a.5.5,0,0,0-.5-.5h-2a.5.5,0,0,0,0,1h2A.5.5,0,0,0,6,10Zm4-4a.5.5,0,0,0,.5-.5v-2a.5.5,0,0,0-1,0v2A.5.5,0,0,0,10,6Zm3.18,1.32a.508.508,0,0,0,.36-.15l1.41-1.41a.5.5,0,0,0-.71-.71L12.83,6.46a.5.5,0,0,0,0,.71A.485.485,0,0,0,13.18,7.32ZM10,14a.5.5,0,0,0-.5.5v2a.5.5,0,0,0,1,0v-2A.5.5,0,0,0,10,14Z"/>
</svg>