<svg id="Laag_1" data-name="Laag 1" xmlns="http://www.w3.org/2000/svg" viewBox="0 0 20 20">
  <defs>
    <style>
      .cls-1{
      fill: #ACACAC;
      fill: var(--on_sur_1, #ACACAC);
      }
    </style>
  </defs>
  <path class="cls-1" 
        d="M4.5,7.5h-1a.5.5,0,0,1,0-1h1a.5.5,0,0,1,0,1Zm.38.91-.71.71a.513.513,0,0,0,0,.71.508.508,0,0,0,.36.15.5.5,0,0,0,.35-.15l.71-.71a.5.5,0,0,0-.71-.71ZM9,7a.5.5,0,0,0,.5.5h1a.5.5,0,0,0,0-1h-1A.5.5,0,0,0,9,7ZM8.77,5.73a.518.518,0,0,0,.35-.14l.71-.71a.5.5,0,0,0-.71-.71l-.71.71a.513.513,0,0,0,0,.71A.543.543,0,0,0,8.77,5.73ZM7,5a.5.5,0,0,0,.5-.5v-1a.5.5,0,0,0-1,0v1A.5.5,0,0,0,7,5Zm-2.12.59a.518.518,0,0,0,.35.14.543.543,0,0,0,.36-.14.513.513,0,0,0,0-.71l-.71-.71a.5.5,0,0,0-.71.71ZM9.12,9.83a.5.5,0,0,0,.35.15.508.508,0,0,0,.36-.15.513.513,0,0,0,0-.71l-.71-.71a.5.5,0,0,0-.71.71Zm3.94-6.12a.52.52,0,0,0-.58.1.5.5,0,0,0-.09.57A5.735,5.735,0,0,1,13,7a6,6,0,0,1-6,6,5.735,5.735,0,0,1-2.62-.61.5.5,0,0,0-.57.09.517.517,0,0,0-.1.58,7,7,0,1,0,9.35-9.35ZM7,11a.5.5,0,0,0,.5-.5v-1a.5.5,0,0,0-1,0v1A.5.5,0,0,0,7,11Z"/>
</svg>