<svg id="Laag_1" data-name="Laag 1" xmlns="http://www.w3.org/2000/svg" viewBox="0 0 20 20"><circle cx="10" cy="10" r="3"/><path d="M14.95,14.24a.5.5,0,0,1,0,.71.5.5,0,0,1-.35.15.508.508,0,0,1-.36-.15l-1.41-1.41a.5.5,0,1,1,.71-.71Z"/><path d="M17,10a.5.5,0,0,1-.5.5h-2a.5.5,0,0,1,0-1h2A.5.5,0,0,1,17,10Z"/><path d="M5.05,5.76a.5.5,0,1,1,.71-.71L7.17,6.46a.5.5,0,0,1,0,.71.485.485,0,0,1-.35.15.508.508,0,0,1-.36-.15Z"/><path d="M7.17,12.83a.5.5,0,0,1,0,.71L5.76,14.95a.508.508,0,0,1-.36.15.5.5,0,0,1-.35-.15.5.5,0,0,1,0-.71l1.41-1.41A.5.5,0,0,1,7.17,12.83Z"/><path d="M5.5,10.5h-2a.5.5,0,0,1,0-1h2a.5.5,0,0,1,0,1Z"/><path d="M9.5,5.5v-2a.5.5,0,0,1,1,0v2a.5.5,0,0,1-1,0Z"/><path d="M12.83,7.17a.5.5,0,0,1,0-.71l1.41-1.41a.5.5,0,0,1,.71.71L13.54,7.17a.508.508,0,0,1-.36.15A.485.485,0,0,1,12.83,7.17Z"/><path d="M10.5,14.5v2a.5.5,0,0,1-1,0v-2a.5.5,0,0,1,1,0Z"/></svg>