<svg 
     id="NVL_rocket" 
     data-name="NVL_rocket" 
     xmlns="http://www.w3.org/2000/svg" 
     viewBox="0 0 32 32"
>
    <defs>
        <style>
            
            .bars {
                fill: #4E517D;
            }
            .flames {
                fill: #9091C3;
            }
            
        </style>
    </defs>
    
    <title>
        Novalinq Rocket
    </title>
    
    <g id="bars">
        <path 
              class="bars" 
              d="M17,3.67V20.75a.25.25,0,0,1-.25.25h-1.5a.25.25,0,0,1-.25-.25V3.67a5.41,5.41,0,0,1,.69-2.48.35.35,0,0,1,.62,0A5.41,5.41,0,0,1,17,3.67Z"
        />
        <rect 
            class="bars" 
            x="12" y="7" width="2" height="14" rx="0.25"
        />
        <rect
            class="bars" 
            x="9" y="16" width="2" height="5" rx="0.25"
        />
        <rect
            class="bars" 
            x="6" y="19" width="2" height="2" rx="0.25"
        />
        <rect
            class="bars" 
            x="18" y="7" width="2" height="14" rx="0.25"
        />
        <rect
            class="bars" 
            x="21" y="16" width="2" height="5" rx="0.25"
        />
        <rect
            class="bars" 
            x="24" y="19" width="2" height="2" rx="0.25"
        />
    </g>
    
    <g id="flames">
        
        <path 
            class="flames" 
              d="M13.68,28.52A.92.92,0,0,1,13,29c-1.1,0-2-3.9-2-5a2,2,0,0,1,2-2,1.85,1.85,0,0,1,.67.12A3,3,0,0,0,13,24,28.83,28.83,0,0,0,13.68,28.52Z"
        />
        <path 
            class="flames" 
            d="M21,24c0,1.1-.9,5-2,5a.92.92,0,0,1-.68-.48A28.83,28.83,0,0,0,19,24a3,3,0,0,0-.67-1.88A1.85,1.85,0,0,1,19,22,2,2,0,0,1,21,24Z"
        />
        <path 
            class="flames" 
            d="M18,24c0,1.1-.9,7-2,7s-2-5.9-2-7a2,2,0,0,1,4,0Z"
        />
    </g>

</svg>