<svg id="Laag_1" data-name="Laag 1" xmlns="http://www.w3.org/2000/svg" viewBox="0 0 16 16"><defs><style>.cls-1{fill:none;}</style></defs><line class="cls-1" x1="3.232" y1="3.232" x2="2.525" y2="2.525"/><line class="cls-1" x1="6.768" y1="6.768" x2="7.475" y2="7.475"/><line class="cls-1" x1="2.5" y1="5" x2="1.5" y2="5"/><line class="cls-1" x1="7.5" y1="5" x2="8.5" y2="5"/><line class="cls-1" x1="3.232" y1="6.768" x2="2.525" y2="7.475"/><line class="cls-1" x1="6.768" y1="3.232" x2="7.475" y2="2.525"/><path d="M2.5,5.5h-1a.5.5,0,0,1,0-1h1a.5.5,0,0,1,0,1Z"/><path d="M3.59,6.41a.513.513,0,0,1,0,.71l-.71.71a.5.5,0,0,1-.35.15.508.508,0,0,1-.36-.15.513.513,0,0,1,0-.71l.71-.71A.513.513,0,0,1,3.59,6.41Z"/><path d="M7.5,4.5h1a.5.5,0,0,1,0,1h-1a.5.5,0,0,1,0-1Z"/><path d="M6.41,3.59a.513.513,0,0,1,0-.71l.71-.71a.5.5,0,0,1,.71.71l-.71.71a.518.518,0,0,1-.35.14A.543.543,0,0,1,6.41,3.59Z"/><path d="M4.5,2.5v-1a.5.5,0,0,1,1,0v1a.5.5,0,0,1-1,0Z"/><path d="M2.17,2.88a.5.5,0,0,1,.71-.71l.71.71a.513.513,0,0,1,0,.71.543.543,0,0,1-.36.14.518.518,0,0,1-.35-.14Z"/><path d="M6.41,7.12a.5.5,0,0,1,.71-.71l.71.71a.513.513,0,0,1,0,.71.508.508,0,0,1-.36.15.5.5,0,0,1-.35-.15Z"/><path d="M15,8A7,7,0,0,1,1.71,11.06a.517.517,0,0,1,.1-.58.5.5,0,0,1,.57-.09A5.735,5.735,0,0,0,5,11a6,6,0,0,0,6-6,5.735,5.735,0,0,0-.61-2.62.5.5,0,0,1,.09-.57.52.52,0,0,1,.58-.1A7.014,7.014,0,0,1,15,8Z"/><path d="M4.5,8.5v-1a.5.5,0,0,1,1,0v1a.5.5,0,0,1-1,0Z"/></svg>