<svg id="Laag_1" data-name="Laag 1" xmlns="http://www.w3.org/2000/svg" viewBox="0 0 20 20"><defs><style>.cls-1{fill:none;}</style></defs><line class="cls-1" x1="5.232" y1="5.232" x2="4.525" y2="4.525"/><line class="cls-1" x1="8.768" y1="8.768" x2="9.475" y2="9.475"/><line class="cls-1" x1="4.5" y1="7" x2="3.5" y2="7"/><line class="cls-1" x1="9.5" y1="7" x2="10.5" y2="7"/><line class="cls-1" x1="5.232" y1="8.768" x2="4.525" y2="9.475"/><line class="cls-1" x1="8.768" y1="5.232" x2="9.475" y2="4.525"/><path d="M4.5,7.5h-1a.5.5,0,0,1,0-1h1a.5.5,0,0,1,0,1Z"/><path d="M5.59,8.41a.513.513,0,0,1,0,.71l-.71.71a.5.5,0,0,1-.35.15.508.508,0,0,1-.36-.15.513.513,0,0,1,0-.71l.71-.71A.513.513,0,0,1,5.59,8.41Z"/><path d="M9.5,6.5h1a.5.5,0,0,1,0,1h-1a.5.5,0,0,1,0-1Z"/><path d="M8.41,5.59a.513.513,0,0,1,0-.71l.71-.71a.5.5,0,0,1,.71.71l-.71.71a.518.518,0,0,1-.35.14A.543.543,0,0,1,8.41,5.59Z"/><path d="M6.5,4.5v-1a.5.5,0,0,1,1,0v1a.5.5,0,0,1-1,0Z"/><path d="M4.17,4.88a.5.5,0,0,1,.71-.71l.71.71a.513.513,0,0,1,0,.71.543.543,0,0,1-.36.14.518.518,0,0,1-.35-.14Z"/><path d="M8.41,9.12a.5.5,0,0,1,.71-.71l.71.71a.513.513,0,0,1,0,.71.508.508,0,0,1-.36.15.5.5,0,0,1-.35-.15Z"/><path d="M17,10A7,7,0,0,1,3.71,13.06a.517.517,0,0,1,.1-.58.5.5,0,0,1,.57-.09A5.735,5.735,0,0,0,7,13a6,6,0,0,0,6-6,5.735,5.735,0,0,0-.61-2.62.5.5,0,0,1,.09-.57.52.52,0,0,1,.58-.1A7.014,7.014,0,0,1,17,10Z"/><path d="M6.5,10.5v-1a.5.5,0,0,1,1,0v1a.5.5,0,0,1-1,0Z"/></svg>